<svg id="圖層_1" data-name="圖層 1" xmlns="http://www.w3.org/2000/svg" viewBox="0 0 242.64 219.05"><defs><style>.cls-1{fill:#e6592a;}.cls-2{fill:#040000;}.cls-3{fill:#f5a823;}.cls-4{fill:#2fb1e7;}</style></defs><title>logo</title><path class="cls-1" d="M206.43,356.74l7.28,21.56,7.3-21.71q.57-1.71.86-2.38a3.18,3.18,0,0,1,.94-1.21,2.77,2.77,0,0,1,1.8-.54,3,3,0,0,1,1.54.42,3.09,3.09,0,0,1,1.12,1.11,2.73,2.73,0,0,1,.4,1.39,4.45,4.45,0,0,1-.13,1,9.24,9.24,0,0,1-.33,1.1l-.39,1.11-7.79,21q-.42,1.21-.83,2.29a9.85,9.85,0,0,1-1,1.91,4.2,4.2,0,0,1-3.68,1.88,4.46,4.46,0,0,1-2.23-.51,4.26,4.26,0,0,1-1.47-1.36,10.06,10.06,0,0,1-1-1.92q-.42-1.07-.83-2.28L200.4,358.8c-.13-.38-.27-.75-.41-1.12a8.47,8.47,0,0,1-.35-1.18,4.84,4.84,0,0,1-.14-1.07,2.86,2.86,0,0,1,.9-2,3,3,0,0,1,2.26-.92,2.65,2.65,0,0,1,2.36,1A13.61,13.61,0,0,1,206.43,356.74Z" transform="translate(-199.5 -166.67)"/><path class="cls-2" d="M252.33,373.54a14.16,14.16,0,0,1-.83,4.93,10.89,10.89,0,0,1-2.41,3.88,10.65,10.65,0,0,1-3.77,2.49,13.33,13.33,0,0,1-4.93.87,13,13,0,0,1-4.89-.88,10.8,10.8,0,0,1-6.17-6.37,15.21,15.21,0,0,1,0-9.9,10.83,10.83,0,0,1,2.39-3.86,10.57,10.57,0,0,1,3.77-2.47,14.27,14.27,0,0,1,9.82,0,10.6,10.6,0,0,1,6.2,6.36A14.15,14.15,0,0,1,252.33,373.54Zm-6,0a9,9,0,0,0-1.61-5.7,5.24,5.24,0,0,0-4.33-2,5.36,5.36,0,0,0-3.09.91,5.75,5.75,0,0,0-2.06,2.69,12.15,12.15,0,0,0,0,8.25,5.9,5.9,0,0,0,2,2.69,5.31,5.31,0,0,0,3.13.93,5.23,5.23,0,0,0,4.33-2.05A9,9,0,0,0,246.32,373.54Z" transform="translate(-199.5 -166.67)"/><path class="cls-2" d="M260.08,358.58a3.16,3.16,0,0,1-2.14-.77,3,3,0,0,1,0-4.26,3.06,3.06,0,0,1,2.12-.82,3.13,3.13,0,0,1,2.06.75,2.66,2.66,0,0,1,.9,2.17,2.73,2.73,0,0,1-.88,2.16A3,3,0,0,1,260.08,358.58Zm3,6.19v17.3a3.87,3.87,0,0,1-.86,2.72,2.83,2.83,0,0,1-2.17.92,2.72,2.72,0,0,1-2.14-.94,4,4,0,0,1-.82-2.7V364.94a3.85,3.85,0,0,1,.82-2.68,2.77,2.77,0,0,1,2.14-.9,2.86,2.86,0,0,1,2.17.9A3.49,3.49,0,0,1,263,364.77Z" transform="translate(-199.5 -166.67)"/><path class="cls-2" d="M290.69,378.35a5.18,5.18,0,0,1-.67,2.39,8.26,8.26,0,0,1-2,2.42,10.53,10.53,0,0,1-3.45,1.85,14.66,14.66,0,0,1-4.69.7q-5.55,0-8.66-3.23a12,12,0,0,1-3.12-8.67,14.29,14.29,0,0,1,1.42-6.51,10.28,10.28,0,0,1,4.12-4.38,14,14,0,0,1,10.71-.87,11.19,11.19,0,0,1,3.29,1.76,8.46,8.46,0,0,1,2.06,2.29,4.54,4.54,0,0,1,.71,2.27,2.4,2.4,0,0,1-.8,1.82,2.75,2.75,0,0,1-1.94.75,2,2,0,0,1-1.24-.38,6.06,6.06,0,0,1-1.11-1.24,9.09,9.09,0,0,0-2.29-2.5,5.63,5.63,0,0,0-7.31,1.24,9,9,0,0,0-1.63,5.67,11,11,0,0,0,.42,3.1,7,7,0,0,0,1.21,2.41,5.1,5.1,0,0,0,1.91,1.51,5.77,5.77,0,0,0,2.46.52,5.52,5.52,0,0,0,3.08-.83,7.29,7.29,0,0,0,2.27-2.54,5.85,5.85,0,0,1,1.18-1.58,2.26,2.26,0,0,1,1.56-.57,2.32,2.32,0,0,1,1.82.83A2.68,2.68,0,0,1,290.69,378.35Z" transform="translate(-199.5 -166.67)"/><path class="cls-2" d="M312.62,375H300.91a8,8,0,0,0,.82,3.6,5.5,5.5,0,0,0,5.05,3.14,7.22,7.22,0,0,0,2-.25,6.39,6.39,0,0,0,1.72-.79,13,13,0,0,0,1.54-1.15c.47-.41,1.07-1,1.82-1.67a2,2,0,0,1,1.32-.39,2.17,2.17,0,0,1,1.49.5,1.81,1.81,0,0,1,.57,1.43,3.89,3.89,0,0,1-.64,1.9,7.56,7.56,0,0,1-1.92,2.08,10.89,10.89,0,0,1-3.22,1.66,13.87,13.87,0,0,1-4.46.66q-5.77,0-9-3.29t-3.2-8.93a15,15,0,0,1,.79-4.92,10.84,10.84,0,0,1,2.31-3.89,9.94,9.94,0,0,1,3.73-2.49,13.4,13.4,0,0,1,4.92-.87,11.64,11.64,0,0,1,6,1.48,9.73,9.73,0,0,1,3.76,3.83,10.06,10.06,0,0,1,1.25,4.78q0,2.26-1.29,2.93A8,8,0,0,1,312.62,375Zm-11.71-3.4h10.85a7.26,7.26,0,0,0-1.66-4.59,5,5,0,0,0-3.78-1.52,4.78,4.78,0,0,0-3.67,1.55A7.66,7.66,0,0,0,300.91,371.61Z" transform="translate(-199.5 -166.67)"/><path class="cls-1" d="M357.11,380.59,352.36,363l-4.8,17.61c-.38,1.34-.67,2.29-.89,2.87a3.81,3.81,0,0,1-1.15,1.56,3.28,3.28,0,0,1-2.18.69,3.59,3.59,0,0,1-1.81-.41,3.16,3.16,0,0,1-1.15-1.16,7.34,7.34,0,0,1-.72-1.78q-.28-1-.5-1.91l-4.89-19.77a11.56,11.56,0,0,1-.44-2.63,2.59,2.59,0,0,1,.8-1.92,2.73,2.73,0,0,1,2-.78,2.25,2.25,0,0,1,2.18,1,11.6,11.6,0,0,1,1,3l3.85,17.15,4.31-16a25.49,25.49,0,0,1,.86-2.8A4,4,0,0,1,350,356a3.61,3.61,0,0,1,2.34-.7,3.42,3.42,0,0,1,2.33.73,4,4,0,0,1,1.15,1.59q.32.86.86,2.84l4.35,16,3.85-17.15a20.49,20.49,0,0,1,.53-2.1,3.36,3.36,0,0,1,.86-1.36,2.43,2.43,0,0,1,1.77-.6,2.76,2.76,0,0,1,2,.77,2.55,2.55,0,0,1,.81,1.93,12.53,12.53,0,0,1-.44,2.63l-4.89,19.77q-.5,2-.83,2.94a3.88,3.88,0,0,1-1.12,1.63,3.25,3.25,0,0,1-2.23.7,3.31,3.31,0,0,1-2.18-.68A3.67,3.67,0,0,1,358,383.5Q357.69,382.65,357.11,380.59Z" transform="translate(-199.5 -166.67)"/><path class="cls-2" d="M388,382.5a17.77,17.77,0,0,1-4,2.41,11.22,11.22,0,0,1-4.34.8,8.22,8.22,0,0,1-3.86-.87,6.37,6.37,0,0,1-2.56-2.35,6.1,6.1,0,0,1-.9-3.22,5.77,5.77,0,0,1,1.48-4,7.42,7.42,0,0,1,4.08-2.21l2.7-.57q2.15-.44,3.68-.8c1-.24,2.14-.54,3.33-.89a5.93,5.93,0,0,0-.91-3.31c-.53-.7-1.65-1.06-3.33-1.06a7,7,0,0,0-3.27.61,5.31,5.31,0,0,0-1.88,1.82c-.52.81-.89,1.34-1.11,1.6a1.82,1.82,0,0,1-1.39.39,2.42,2.42,0,0,1-1.66-.62,2,2,0,0,1-.7-1.58,4.81,4.81,0,0,1,1.07-2.93,7.6,7.6,0,0,1,3.32-2.34,15,15,0,0,1,5.62-.92,15.92,15.92,0,0,1,5.91.89,5.5,5.5,0,0,1,3,2.81,12.27,12.27,0,0,1,.89,5.1q0,2,0,3.41c0,.93,0,2,0,3.11a11.5,11.5,0,0,0,.53,3.35,10.43,10.43,0,0,1,.53,2.25,2.1,2.1,0,0,1-.82,1.6,2.77,2.77,0,0,1-1.87.72,2.52,2.52,0,0,1-1.73-.83A12.19,12.19,0,0,1,388,382.5Zm-.38-8.25a28.29,28.29,0,0,1-3.64,1q-2.39.51-3.31.75a4.49,4.49,0,0,0-1.75.94,2.4,2.4,0,0,0-.84,2,2.9,2.9,0,0,0,1,2.2,3.64,3.64,0,0,0,2.57.91,6.69,6.69,0,0,0,3.12-.74,4.91,4.91,0,0,0,2.1-1.91,8.73,8.73,0,0,0,.77-4.26Z" transform="translate(-199.5 -166.67)"/><path class="cls-2" d="M403,366.08l4.62,13,5-13.52a8.11,8.11,0,0,1,1.15-2.31,2.1,2.1,0,0,1,1.71-.68,2.58,2.58,0,0,1,1.85.73,2.28,2.28,0,0,1,.76,1.69,3.47,3.47,0,0,1-.14.88,8.68,8.68,0,0,1-.31.94l-.41,1-5.47,13.58-.6,1.48a7.69,7.69,0,0,1-.81,1.54,3.2,3.2,0,0,1-1.11,1,3.3,3.3,0,0,1-1.59.36,3.08,3.08,0,0,1-1.93-.55,3.72,3.72,0,0,1-1.07-1.21q-.35-.66-1.16-2.6L398,367.92q-.19-.5-.38-1a8.7,8.7,0,0,1-.34-1,3.72,3.72,0,0,1-.14-.9,2.17,2.17,0,0,1,.36-1.16,2.74,2.74,0,0,1,1-.94,2.65,2.65,0,0,1,1.36-.37,2.16,2.16,0,0,1,2,.81A12.76,12.76,0,0,1,403,366.08Z" transform="translate(-199.5 -166.67)"/><path class="cls-2" d="M437.44,375.52H426.29a7.58,7.58,0,0,0,.78,3.43,5.24,5.24,0,0,0,4.81,3,6.88,6.88,0,0,0,1.87-.24,6.08,6.08,0,0,0,1.64-.75,12.33,12.33,0,0,0,1.46-1.1c.45-.39,1-.92,1.74-1.59a1.87,1.87,0,0,1,1.25-.38,2.07,2.07,0,0,1,1.42.48,1.72,1.72,0,0,1,.54,1.36,3.7,3.7,0,0,1-.61,1.81,7.2,7.2,0,0,1-1.83,2,10.37,10.37,0,0,1-3.07,1.58,13.21,13.21,0,0,1-4.25.63q-5.49,0-8.55-3.13a11.66,11.66,0,0,1-3-8.5,14.24,14.24,0,0,1,.75-4.69,10.33,10.33,0,0,1,2.2-3.71,9.47,9.47,0,0,1,3.55-2.37,12.76,12.76,0,0,1,4.68-.83,11.09,11.09,0,0,1,5.73,1.41,9.27,9.27,0,0,1,3.58,3.65,9.59,9.59,0,0,1,1.19,4.55q0,2.15-1.23,2.79A7.64,7.64,0,0,1,437.44,375.52Zm-11.15-3.24h10.34a6.91,6.91,0,0,0-1.58-4.38,4.71,4.71,0,0,0-3.6-1.45,4.56,4.56,0,0,0-3.5,1.47A7.3,7.3,0,0,0,426.29,372.28Z" transform="translate(-199.5 -166.67)"/><rect class="cls-3" x="5.29" width="22.89" height="177.03" rx="11.44" ry="11.44"/><rect class="cls-3" x="38.38" y="23.91" width="16.58" height="128.25" rx="8.29" ry="8.29"/><path class="cls-4" d="M302.88,223.52l18.25,54,18.3-54.42q1.43-4.29,2.14-6a8,8,0,0,1,2.37-3,6.93,6.93,0,0,1,4.51-1.35,7.53,7.53,0,0,1,3.87,1,7.74,7.74,0,0,1,2.81,2.78,6.85,6.85,0,0,1,1,3.49,11.16,11.16,0,0,1-.33,2.61,23.17,23.17,0,0,1-.83,2.75c-.33.9-.65,1.82-1,2.78l-19.51,52.66q-1,3-2.09,5.75a24.69,24.69,0,0,1-2.41,4.78,10.53,10.53,0,0,1-9.24,4.7,11.17,11.17,0,0,1-5.58-1.29,10.68,10.68,0,0,1-3.69-3.41,25.21,25.21,0,0,1-2.45-4.81q-1-2.69-2.09-5.72l-19.18-52.22c-.34-1-.67-1.89-1-2.81a21.22,21.22,0,0,1-.88-3,12.12,12.12,0,0,1-.36-2.69,7.18,7.18,0,0,1,2.26-5.11,7.58,7.58,0,0,1,5.66-2.31q4.17,0,5.91,2.55A34.12,34.12,0,0,1,302.88,223.52Z" transform="translate(-199.5 -166.67)"/><rect class="cls-3" x="65.17" y="66.62" width="11.41" height="41.43" rx="5.71" ry="5.71"/><rect class="cls-3" x="409.95" y="166.67" width="22.89" height="177.03" rx="11.44" ry="11.44" transform="translate(643.28 343.69) rotate(-180)"/><rect class="cls-3" x="383.16" y="190.58" width="16.58" height="128.25" rx="8.29" ry="8.29" transform="translate(583.4 342.75) rotate(-180)"/><rect class="cls-3" x="361.55" y="233.28" width="11.41" height="41.43" rx="5.71" ry="5.71" transform="translate(535.01 341.33) rotate(-180)"/></svg>